<svg width="392" height="392" viewBox="0 0 392 392" fill="none" xmlns="http://www.w3.org/2000/svg">
<path d="M357.245 191.931C351.221 154.882 335.1 120.211 310.652 91.728C296.368 75.1699 277.795 57.1536 255.459 42.924C199.136 7.05599 129.36 17.248 100.352 53.312C71.344 89.376 18.816 250.096 22.736 292.432C26.656 334.768 141.12 373.184 215.6 363.776C290.08 354.368 353.584 306.544 359.856 254.016C362.318 233.428 360.436 211.264 357.245 191.931Z" fill="#F00280"/>
<path opacity="0.7" d="M357.245 191.931C351.221 154.882 335.1 120.211 310.652 91.728C296.368 75.1699 277.795 57.1536 255.459 42.924C199.136 7.05599 129.36 17.248 100.352 53.312C71.344 89.376 18.816 250.096 22.736 292.432C26.656 334.768 141.12 373.184 215.6 363.776C290.08 354.368 353.584 306.544 359.856 254.016C362.318 233.428 360.436 211.264 357.245 191.931Z" fill="white"/>
<path d="M359.401 288.567C359.401 288.567 359.974 286.497 359.989 286.364C360.209 284.796 359.707 281.66 358.116 280.876C357.847 280.755 357.556 280.691 357.262 280.69C356.967 280.689 356.676 280.75 356.406 280.869C356.137 280.988 355.896 281.163 355.699 281.381C355.501 281.6 355.353 281.858 355.262 282.138C354.831 283.314 355.372 284.757 356.046 285.744C356.767 286.944 359.401 288.559 359.401 288.567Z" fill="#263238"/>
<path d="M327.939 287.877C329.209 288.434 332.322 288.363 332.322 288.363C332.322 288.363 331.656 286.325 331.593 286.207C330.911 284.78 328.755 282.42 326.999 282.656C326.708 282.702 326.43 282.81 326.184 282.971C325.937 283.132 325.728 283.344 325.568 283.592C325.409 283.84 325.304 284.118 325.26 284.41C325.216 284.701 325.234 284.998 325.313 285.282C325.603 286.505 326.857 287.407 327.939 287.877Z" fill="#263238"/>
<path d="M368.692 277.293C366.928 277.097 364.834 279.512 364.192 280.962C364.137 281.088 363.486 283.142 363.525 283.142C363.196 283.518 362.843 283.926 362.467 284.38C361.777 285.227 361.001 286.191 360.232 287.297C359.392 288.479 358.623 289.709 357.927 290.982C357.139 292.402 356.477 293.89 355.952 295.427C355.952 295.427 355.952 295.466 355.952 295.482C355.952 294.964 355.952 293.506 355.952 293.396C355.748 291.828 354.431 288.912 352.69 288.59C352.399 288.546 352.102 288.564 351.818 288.641C351.534 288.719 351.269 288.855 351.041 289.041C350.813 289.227 350.626 289.459 350.493 289.722C350.36 289.984 350.283 290.272 350.268 290.566C350.166 291.813 351.052 293.059 351.953 293.851C352.949 294.737 355.709 295.599 355.928 295.662C355.433 297.239 355.043 298.847 354.76 300.476C354.595 301.424 354.454 302.389 354.321 303.353C354.321 302.906 354.321 302.499 354.321 302.444C354.125 300.876 352.808 297.959 351.06 297.638C350.769 297.594 350.472 297.611 350.188 297.689C349.905 297.766 349.641 297.903 349.413 298.089C349.185 298.275 348.999 298.507 348.867 298.77C348.735 299.032 348.659 299.32 348.645 299.613C348.543 300.86 349.429 302.107 350.33 302.898C351.232 303.69 353.56 304.466 354.18 304.67L354.039 305.784C353.827 307.563 353.623 309.343 353.372 311.076C353.278 311.687 353.168 312.283 353.067 312.887C353.067 312.487 353.067 312.15 353.067 312.103C352.863 310.535 351.546 307.618 349.805 307.297C349.514 307.251 349.217 307.267 348.933 307.344C348.649 307.421 348.385 307.556 348.156 307.742C347.928 307.927 347.741 308.159 347.608 308.421C347.474 308.683 347.398 308.971 347.383 309.264C347.281 310.511 348.167 311.765 349.068 312.549C350.217 313.32 351.479 313.907 352.808 314.29C352.682 314.901 352.557 315.513 352.4 316.101C352.29 316.501 352.204 316.885 352.071 317.285L351.695 318.453C351.428 319.182 351.154 319.935 350.911 320.648C350.722 321.142 350.534 321.605 350.338 322.075C350.44 321.471 350.597 320.272 350.605 320.17C350.584 318.778 350.206 317.415 349.507 316.211C349.523 316.057 349.523 315.902 349.507 315.748C349.47 315.456 349.372 315.176 349.219 314.924C349.067 314.673 348.863 314.456 348.621 314.288C348.38 314.12 348.105 314.005 347.816 313.95C347.527 313.895 347.23 313.901 346.944 313.968C345.227 314.423 344.145 317.434 344.058 319.01C344.058 319.104 344.113 320.123 344.168 320.766C344.082 320.389 343.996 320.029 343.909 319.645C343.729 318.861 343.525 318.139 343.314 317.332C343.196 316.94 343.078 316.548 342.953 316.156C342.828 315.764 342.679 315.372 342.545 314.956C342.2 314.031 341.816 313.106 341.401 312.189C342.067 312.032 344.411 311.405 345.321 310.707C346.23 310.009 347.257 308.81 347.249 307.571C347.258 307.276 347.204 306.983 347.092 306.711C346.98 306.438 346.811 306.193 346.597 305.99C346.383 305.787 346.129 305.632 345.851 305.534C345.573 305.436 345.277 305.398 344.984 305.423C343.22 305.611 341.691 308.418 341.369 309.97C341.369 310.064 341.244 311.209 341.205 311.828C340.946 311.279 340.703 310.731 340.421 310.182C339.637 308.614 338.782 307.046 337.951 305.431L337.167 303.98C337.402 303.925 340.209 303.275 341.26 302.459C342.31 301.644 343.196 300.562 343.188 299.323C343.197 299.029 343.143 298.736 343.031 298.463C342.919 298.191 342.75 297.945 342.536 297.742C342.322 297.539 342.068 297.384 341.79 297.286C341.512 297.189 341.216 297.151 340.922 297.175C339.158 297.363 337.63 300.17 337.308 301.722C337.308 301.84 337.136 303.479 337.12 303.894C336.563 302.828 336.022 301.762 335.552 300.68C334.878 299.229 334.3 297.736 333.819 296.211C333.929 296.211 336.861 295.521 337.943 294.69C338.884 293.976 339.872 292.8 339.864 291.554C339.873 291.259 339.819 290.966 339.707 290.694C339.594 290.421 339.426 290.176 339.212 289.973C338.998 289.77 338.744 289.615 338.466 289.517C338.188 289.419 337.892 289.381 337.598 289.406C335.842 289.594 334.313 292.401 333.992 293.953C333.992 294.055 333.859 295.301 333.812 295.897H333.717C333.276 294.36 332.974 292.785 332.816 291.193C332.714 290.315 332.667 289.468 332.643 288.637C333.2 288.575 335.779 288.23 336.806 287.595C337.833 286.96 338.931 285.917 339.064 284.678C339.1 284.389 339.076 284.095 338.992 283.816C338.908 283.537 338.767 283.278 338.577 283.057C338.387 282.835 338.153 282.656 337.89 282.53C337.627 282.404 337.341 282.335 337.049 282.326C335.278 282.326 333.443 284.945 332.957 286.45C332.957 286.528 332.753 287.391 332.636 288.018C332.636 287.65 332.636 287.234 332.636 286.905C332.636 285.564 332.722 284.341 332.8 283.251C332.855 282.64 332.918 282.083 332.98 281.558C333.49 281.205 335.536 279.763 336.171 278.728C336.806 277.693 337.292 276.258 336.83 275.098C336.731 274.821 336.575 274.567 336.373 274.354C336.17 274.141 335.924 273.972 335.652 273.86C335.38 273.748 335.088 273.694 334.794 273.702C334.5 273.71 334.21 273.779 333.945 273.906C332.377 274.69 331.953 277.889 332.212 279.457C332.212 279.59 332.832 281.66 332.855 281.636C332.792 282.138 332.722 282.671 332.659 283.259C332.549 284.349 332.44 285.572 332.408 286.92C332.354 288.369 332.388 289.819 332.51 291.264C332.626 292.884 332.889 294.49 333.294 296.062C333.291 296.08 333.291 296.099 333.294 296.117C333.012 295.678 332.196 294.478 332.118 294.4C331.083 293.2 328.378 291.491 326.748 292.189C326.48 292.311 326.241 292.489 326.047 292.71C325.852 292.931 325.707 293.191 325.619 293.472C325.532 293.753 325.505 294.049 325.54 294.342C325.575 294.634 325.671 294.916 325.823 295.168C326.418 296.266 327.869 296.807 329.037 296.979C330.354 297.167 333.129 296.368 333.349 296.297C333.808 297.887 334.371 299.445 335.035 300.962C335.419 301.84 335.819 302.718 336.25 303.596C335.999 303.228 335.772 302.898 335.732 302.851C334.697 301.66 331.993 299.951 330.362 300.648C330.094 300.771 329.855 300.948 329.661 301.169C329.466 301.39 329.321 301.65 329.233 301.931C329.146 302.212 329.119 302.509 329.154 302.801C329.189 303.093 329.286 303.375 329.437 303.628C330.033 304.725 331.475 305.266 332.651 305.439C333.827 305.611 336.218 304.968 336.846 304.788L337.34 305.791C338.124 307.399 338.955 308.99 339.692 310.574C339.958 311.138 340.193 311.695 340.436 312.259C340.209 311.93 340.013 311.656 339.982 311.616C338.947 310.417 336.242 308.716 334.611 309.406C334.344 309.528 334.105 309.706 333.91 309.927C333.716 310.147 333.57 310.407 333.482 310.688C333.394 310.968 333.366 311.265 333.4 311.557C333.434 311.849 333.528 312.131 333.678 312.385C334.282 313.482 335.724 314.023 336.9 314.196C338.283 314.202 339.658 313.996 340.977 313.584C341.212 314.165 341.44 314.745 341.636 315.317C341.761 315.717 341.91 316.101 342.012 316.485L342.341 317.669C342.522 318.453 342.718 319.237 342.875 319.95C342.984 320.46 343.086 320.954 343.188 321.456C342.929 320.891 342.404 319.809 342.357 319.723C341.51 318.382 339.096 316.289 337.379 316.728C337.095 316.809 336.832 316.949 336.606 317.138C336.38 317.327 336.197 317.561 336.068 317.826C335.938 318.091 335.866 318.38 335.855 318.674C335.845 318.968 335.896 319.262 336.007 319.535C336.438 320.703 337.786 321.464 338.915 321.808C340.162 322.185 342.914 321.808 343.259 321.808C343.423 322.632 343.58 323.439 343.706 324.16C344.176 326.795 344.49 329.006 344.639 330.55C344.639 330.824 344.693 331.075 344.725 331.334H339.386L341.04 362.992H350.769L352.392 331.232H347.39C347.39 331.154 347.461 331.083 347.5 331.005C348.182 329.586 349.123 327.54 350.15 325.046C350.472 324.262 350.801 323.408 351.13 322.53C351.467 322.6 354.196 323.157 355.466 322.867C356.736 322.577 358.014 321.957 358.531 320.813C358.661 320.55 358.735 320.262 358.747 319.968C358.758 319.675 358.708 319.382 358.6 319.109C358.491 318.837 358.326 318.59 358.116 318.385C357.905 318.18 357.654 318.021 357.379 317.92C355.693 317.355 353.129 319.26 352.188 320.531C352.134 320.609 351.624 321.495 351.31 322.052C351.444 321.699 351.577 321.346 351.71 320.977C351.977 320.248 352.228 319.511 352.494 318.72C352.612 318.328 352.729 317.936 352.847 317.544C352.965 317.152 353.051 316.76 353.161 316.32C353.388 315.356 353.576 314.376 353.741 313.38C355.054 313.905 356.439 314.225 357.849 314.329C359.033 314.243 360.507 313.812 361.189 312.761C361.359 312.52 361.476 312.246 361.532 311.957C361.589 311.667 361.584 311.369 361.517 311.082C361.45 310.795 361.324 310.525 361.146 310.29C360.968 310.055 360.742 309.861 360.483 309.719C358.915 308.935 356.085 310.401 354.995 311.522C354.925 311.593 354.211 312.487 353.827 312.981C353.921 312.385 354.023 311.781 354.094 311.177C354.313 309.421 354.478 307.634 354.65 305.854C354.705 305.305 354.768 304.764 354.823 304.223C355.05 304.302 357.747 305.313 359.072 305.219C360.256 305.133 361.73 304.702 362.412 303.651C362.582 303.41 362.699 303.136 362.755 302.847C362.812 302.557 362.807 302.259 362.74 301.972C362.673 301.685 362.547 301.415 362.369 301.18C362.191 300.945 361.965 300.751 361.706 300.609C360.138 299.825 357.308 301.299 356.218 302.412C356.132 302.499 355.105 303.784 354.862 304.121C354.987 302.922 355.128 301.73 355.309 300.562C355.549 298.974 355.889 297.403 356.328 295.858C356.438 295.897 359.252 296.956 360.609 296.862C361.785 296.783 363.266 296.344 363.948 295.294C364.117 295.052 364.233 294.778 364.289 294.489C364.345 294.2 364.339 293.902 364.273 293.616C364.206 293.329 364.08 293.059 363.903 292.824C363.725 292.589 363.501 292.394 363.243 292.252C361.675 291.468 358.845 292.934 357.755 294.055C357.676 294.125 356.9 295.105 356.532 295.576L356.446 295.529C356.932 293.995 357.554 292.507 358.304 291.084C358.711 290.3 359.135 289.563 359.574 288.865C360.076 289.116 362.388 290.237 363.619 290.284C364.85 290.331 366.316 290.064 367.116 289.1C367.315 288.877 367.464 288.615 367.554 288.331C367.644 288.046 367.672 287.746 367.637 287.449C367.603 287.153 367.505 286.867 367.352 286.611C367.198 286.355 366.992 286.134 366.747 285.964C365.266 284.984 362.294 286.168 361.063 287.148C360.993 287.203 360.366 287.822 359.919 288.285L360.522 287.344C361.259 286.231 362.012 285.251 362.678 284.396C363.063 283.91 363.423 283.479 363.76 283.071C364.38 283.071 366.896 282.985 367.986 282.475C369.076 281.966 370.283 281.033 370.542 279.81C370.603 279.521 370.602 279.223 370.54 278.935C370.478 278.646 370.355 278.375 370.18 278.137C370.006 277.899 369.783 277.701 369.526 277.556C369.27 277.41 368.985 277.321 368.692 277.293ZM349.178 324.639C348.112 327.085 347.132 329.092 346.426 330.48L346.042 331.264H345.924C345.885 330.997 345.854 330.699 345.807 330.362C345.587 328.794 345.25 326.575 344.725 323.933C344.56 323.094 344.372 322.2 344.16 321.291C344.991 320.963 345.8 320.584 346.583 320.154C347.651 321.071 348.841 321.836 350.119 322.428C349.805 323.173 349.492 323.933 349.178 324.639Z" fill="#263238"/>
<path opacity="0.3" d="M327.939 287.877C329.209 288.434 332.322 288.363 332.322 288.363C332.322 288.363 331.656 286.325 331.593 286.207C330.911 284.78 328.755 282.42 326.999 282.656C326.708 282.702 326.43 282.81 326.184 282.971C325.937 283.132 325.728 283.344 325.568 283.592C325.409 283.84 325.304 284.118 325.26 284.41C325.216 284.701 325.234 284.998 325.313 285.282C325.603 286.505 326.857 287.407 327.939 287.877Z" fill="#263238"/>
<path opacity="0.3" d="M359.401 288.567C359.401 288.567 359.974 286.497 359.989 286.364C360.209 284.796 359.707 281.66 358.116 280.876C357.847 280.755 357.556 280.691 357.262 280.69C356.967 280.689 356.676 280.75 356.406 280.869C356.137 280.988 355.896 281.163 355.699 281.381C355.501 281.6 355.353 281.858 355.262 282.138C354.831 283.314 355.372 284.757 356.046 285.744C356.767 286.944 359.401 288.559 359.401 288.567Z" fill="#263238"/>
<path opacity="0.3" d="M368.692 277.293C366.928 277.097 364.834 279.512 364.192 280.962C364.137 281.088 363.486 283.142 363.525 283.142C363.196 283.518 362.843 283.926 362.467 284.38C361.777 285.227 361.001 286.191 360.232 287.297C359.392 288.479 358.623 289.709 357.927 290.982C357.139 292.402 356.477 293.89 355.952 295.427C355.952 295.427 355.952 295.466 355.952 295.482C355.952 294.964 355.952 293.506 355.952 293.396C355.748 291.828 354.431 288.912 352.69 288.59C352.399 288.546 352.102 288.564 351.818 288.641C351.534 288.719 351.269 288.855 351.041 289.041C350.813 289.227 350.626 289.459 350.493 289.722C350.36 289.984 350.283 290.272 350.268 290.566C350.166 291.813 351.052 293.059 351.953 293.851C352.949 294.737 355.709 295.599 355.928 295.662C355.433 297.239 355.043 298.847 354.76 300.476C354.595 301.424 354.454 302.389 354.321 303.353C354.321 302.906 354.321 302.499 354.321 302.444C354.125 300.876 352.808 297.959 351.06 297.638C350.769 297.594 350.472 297.611 350.188 297.689C349.905 297.766 349.641 297.903 349.413 298.089C349.185 298.275 348.999 298.507 348.867 298.77C348.735 299.032 348.659 299.32 348.645 299.613C348.543 300.86 349.429 302.107 350.33 302.898C351.232 303.69 353.56 304.466 354.18 304.67L354.039 305.784C353.827 307.563 353.623 309.343 353.372 311.076C353.278 311.687 353.168 312.283 353.067 312.887C353.067 312.487 353.067 312.15 353.067 312.103C352.863 310.535 351.546 307.618 349.805 307.297C349.514 307.251 349.217 307.267 348.933 307.344C348.649 307.421 348.385 307.556 348.156 307.742C347.928 307.927 347.741 308.159 347.608 308.421C347.474 308.683 347.398 308.971 347.383 309.264C347.281 310.511 348.167 311.765 349.068 312.549C350.217 313.32 351.479 313.907 352.808 314.29C352.682 314.901 352.557 315.513 352.4 316.101C352.29 316.501 352.204 316.885 352.071 317.285L351.695 318.453C351.428 319.182 351.154 319.935 350.911 320.648C350.722 321.142 350.534 321.605 350.338 322.075C350.44 321.471 350.597 320.272 350.605 320.17C350.584 318.778 350.206 317.415 349.507 316.211C349.523 316.057 349.523 315.902 349.507 315.748C349.47 315.456 349.372 315.176 349.219 314.924C349.067 314.673 348.863 314.456 348.621 314.288C348.38 314.12 348.105 314.005 347.816 313.95C347.527 313.895 347.23 313.901 346.944 313.968C345.227 314.423 344.145 317.434 344.058 319.01C344.058 319.104 344.113 320.123 344.168 320.766C344.082 320.389 343.996 320.029 343.909 319.645C343.729 318.861 343.525 318.139 343.314 317.332C343.196 316.94 343.078 316.548 342.953 316.156C342.828 315.764 342.679 315.372 342.545 314.956C342.2 314.031 341.816 313.106 341.401 312.189C342.067 312.032 344.411 311.405 345.321 310.707C346.23 310.009 347.257 308.81 347.249 307.571C347.258 307.276 347.204 306.983 347.092 306.711C346.98 306.438 346.811 306.193 346.597 305.99C346.383 305.787 346.129 305.632 345.851 305.534C345.573 305.436 345.277 305.398 344.984 305.423C343.22 305.611 341.691 308.418 341.369 309.97C341.369 310.064 341.244 311.209 341.205 311.828C340.946 311.279 340.703 310.731 340.421 310.182C339.637 308.614 338.782 307.046 337.951 305.431L337.167 303.98C337.402 303.925 340.209 303.275 341.26 302.459C342.31 301.644 343.196 300.562 343.188 299.323C343.197 299.029 343.143 298.736 343.031 298.463C342.919 298.191 342.75 297.945 342.536 297.742C342.322 297.539 342.068 297.384 341.79 297.286C341.512 297.189 341.216 297.151 340.922 297.175C339.158 297.363 337.63 300.17 337.308 301.722C337.308 301.84 337.136 303.479 337.12 303.894C336.563 302.828 336.022 301.762 335.552 300.68C334.878 299.229 334.3 297.736 333.819 296.211C333.929 296.211 336.861 295.521 337.943 294.69C338.884 293.976 339.872 292.8 339.864 291.554C339.873 291.259 339.819 290.966 339.707 290.694C339.594 290.421 339.426 290.176 339.212 289.973C338.998 289.77 338.744 289.615 338.466 289.517C338.188 289.419 337.892 289.381 337.598 289.406C335.842 289.594 334.313 292.401 333.992 293.953C333.992 294.055 333.859 295.301 333.812 295.897H333.717C333.276 294.36 332.974 292.785 332.816 291.193C332.714 290.315 332.667 289.468 332.643 288.637C333.2 288.575 335.779 288.23 336.806 287.595C337.833 286.96 338.931 285.917 339.064 284.678C339.1 284.389 339.076 284.095 338.992 283.816C338.908 283.537 338.767 283.278 338.577 283.057C338.387 282.835 338.153 282.656 337.89 282.53C337.627 282.404 337.341 282.335 337.049 282.326C335.278 282.326 333.443 284.945 332.957 286.45C332.957 286.528 332.753 287.391 332.636 288.018C332.636 287.65 332.636 287.234 332.636 286.905C332.636 285.564 332.722 284.341 332.8 283.251C332.855 282.64 332.918 282.083 332.98 281.558C333.49 281.205 335.536 279.763 336.171 278.728C336.806 277.693 337.292 276.258 336.83 275.098C336.731 274.821 336.575 274.567 336.373 274.354C336.17 274.141 335.924 273.972 335.652 273.86C335.38 273.748 335.088 273.694 334.794 273.702C334.5 273.71 334.21 273.779 333.945 273.906C332.377 274.69 331.953 277.889 332.212 279.457C332.212 279.59 332.832 281.66 332.855 281.636C332.792 282.138 332.722 282.671 332.659 283.259C332.549 284.349 332.44 285.572 332.408 286.92C332.354 288.369 332.388 289.819 332.51 291.264C332.626 292.884 332.889 294.49 333.294 296.062C333.291 296.08 333.291 296.099 333.294 296.117C333.012 295.678 332.196 294.478 332.118 294.4C331.083 293.2 328.378 291.491 326.748 292.189C326.48 292.311 326.241 292.489 326.047 292.71C325.852 292.931 325.707 293.191 325.619 293.472C325.532 293.753 325.505 294.049 325.54 294.342C325.575 294.634 325.671 294.916 325.823 295.168C326.418 296.266 327.869 296.807 329.037 296.979C330.354 297.167 333.129 296.368 333.349 296.297C333.808 297.887 334.371 299.445 335.035 300.962C335.419 301.84 335.819 302.718 336.25 303.596C335.999 303.228 335.772 302.898 335.732 302.851C334.697 301.66 331.993 299.951 330.362 300.648C330.094 300.771 329.855 300.948 329.661 301.169C329.466 301.39 329.321 301.65 329.233 301.931C329.146 302.212 329.119 302.509 329.154 302.801C329.189 303.093 329.286 303.375 329.437 303.628C330.033 304.725 331.475 305.266 332.651 305.439C333.827 305.611 336.218 304.968 336.846 304.788L337.34 305.791C338.124 307.399 338.955 308.99 339.692 310.574C339.958 311.138 340.193 311.695 340.436 312.259C340.209 311.93 340.013 311.656 339.982 311.616C338.947 310.417 336.242 308.716 334.611 309.406C334.344 309.528 334.105 309.706 333.91 309.927C333.716 310.147 333.57 310.407 333.482 310.688C333.394 310.968 333.366 311.265 333.4 311.557C333.434 311.849 333.528 312.131 333.678 312.385C334.282 313.482 335.724 314.023 336.9 314.196C338.283 314.202 339.658 313.996 340.977 313.584C341.212 314.165 341.44 314.745 341.636 315.317C341.761 315.717 341.91 316.101 342.012 316.485L342.341 317.669C342.522 318.453 342.718 319.237 342.875 319.95C342.984 320.46 343.086 320.954 343.188 321.456C342.929 320.891 342.404 319.809 342.357 319.723C341.51 318.382 339.096 316.289 337.379 316.728C337.095 316.809 336.832 316.949 336.606 317.138C336.38 317.327 336.197 317.561 336.068 317.826C335.938 318.091 335.866 318.38 335.855 318.674C335.845 318.968 335.896 319.262 336.007 319.535C336.438 320.703 337.786 321.464 338.915 321.808C340.162 322.185 342.914 321.808 343.259 321.808C343.423 322.632 343.58 323.439 343.706 324.16C344.176 326.795 344.49 329.006 344.639 330.55C344.639 330.824 344.693 331.075 344.725 331.334H339.386L341.04 362.992H350.769L352.392 331.232H347.39C347.39 331.154 347.461 331.083 347.5 331.005C348.182 329.586 349.123 327.54 350.15 325.046C350.472 324.262 350.801 323.408 351.13 322.53C351.467 322.6 354.196 323.157 355.466 322.867C356.736 322.577 358.014 321.957 358.531 320.813C358.661 320.55 358.735 320.262 358.747 319.968C358.758 319.675 358.708 319.382 358.6 319.109C358.491 318.837 358.326 318.59 358.116 318.385C357.905 318.18 357.654 318.021 357.379 317.92C355.693 317.355 353.129 319.26 352.188 320.531C352.134 320.609 351.624 321.495 351.31 322.052C351.444 321.699 351.577 321.346 351.71 320.977C351.977 320.248 352.228 319.511 352.494 318.72C352.612 318.328 352.729 317.936 352.847 317.544C352.965 317.152 353.051 316.76 353.161 316.32C353.388 315.356 353.576 314.376 353.741 313.38C355.054 313.905 356.439 314.225 357.849 314.329C359.033 314.243 360.507 313.812 361.189 312.761C361.359 312.52 361.476 312.246 361.532 311.957C361.589 311.667 361.584 311.369 361.517 311.082C361.45 310.795 361.324 310.525 361.146 310.29C360.968 310.055 360.742 309.861 360.483 309.719C358.915 308.935 356.085 310.401 354.995 311.522C354.925 311.593 354.211 312.487 353.827 312.981C353.921 312.385 354.023 311.781 354.094 311.177C354.313 309.421 354.478 307.634 354.65 305.854C354.705 305.305 354.768 304.764 354.823 304.223C355.05 304.302 357.747 305.313 359.072 305.219C360.256 305.133 361.73 304.702 362.412 303.651C362.582 303.41 362.699 303.136 362.755 302.847C362.812 302.557 362.807 302.259 362.74 301.972C362.673 301.685 362.547 301.415 362.369 301.18C362.191 300.945 361.965 300.751 361.706 300.609C360.138 299.825 357.308 301.299 356.218 302.412C356.132 302.499 355.105 303.784 354.862 304.121C354.987 302.922 355.128 301.73 355.309 300.562C355.549 298.974 355.889 297.403 356.328 295.858C356.438 295.897 359.252 296.956 360.609 296.862C361.785 296.783 363.266 296.344 363.948 295.294C364.117 295.052 364.233 294.778 364.289 294.489C364.345 294.2 364.339 293.902 364.273 293.616C364.206 293.329 364.08 293.059 363.903 292.824C363.725 292.589 363.501 292.394 363.243 292.252C361.675 291.468 358.845 292.934 357.755 294.055C357.676 294.125 356.9 295.105 356.532 295.576L356.446 295.529C356.932 293.995 357.554 292.507 358.304 291.084C358.711 290.3 359.135 289.563 359.574 288.865C360.076 289.116 362.388 290.237 363.619 290.284C364.85 290.331 366.316 290.064 367.116 289.1C367.315 288.877 367.464 288.615 367.554 288.331C367.644 288.046 367.672 287.746 367.637 287.449C367.603 287.153 367.505 286.867 367.352 286.611C367.198 286.355 366.992 286.134 366.747 285.964C365.266 284.984 362.294 286.168 361.063 287.148C360.993 287.203 360.366 287.822 359.919 288.285L360.522 287.344C361.259 286.231 362.012 285.251 362.678 284.396C363.063 283.91 363.423 283.479 363.76 283.071C364.38 283.071 366.896 282.985 367.986 282.475C369.076 281.966 370.283 281.033 370.542 279.81C370.603 279.521 370.602 279.223 370.54 278.935C370.478 278.646 370.355 278.375 370.18 278.137C370.006 277.899 369.783 277.701 369.526 277.556C369.27 277.41 368.985 277.321 368.692 277.293ZM349.178 324.639C348.112 327.085 347.132 329.092 346.426 330.48L346.042 331.264H345.924C345.885 330.997 345.854 330.699 345.807 330.362C345.587 328.794 345.25 326.575 344.725 323.933C344.56 323.094 344.372 322.2 344.16 321.291C344.991 320.963 345.8 320.584 346.583 320.154C347.651 321.071 348.841 321.836 350.119 322.428C349.805 323.173 349.492 323.933 349.178 324.639Z" fill="#263238"/>
<path d="M142.688 246.176V312.698C142.689 313.575 142.517 314.443 142.182 315.253C141.847 316.063 141.356 316.799 140.736 317.418C140.116 318.038 139.381 318.53 138.571 318.864C137.761 319.199 136.893 319.371 136.016 319.37H104.374C103.497 319.371 102.629 319.199 101.82 318.864C101.01 318.53 100.274 318.038 99.6539 317.418C99.0342 316.799 98.5428 316.063 98.2078 315.253C97.8729 314.443 97.7011 313.575 97.7021 312.698V246.176C97.7021 245.3 97.8747 244.432 98.2099 243.623C98.5452 242.813 99.0367 242.078 99.6562 241.458C100.276 240.839 101.011 240.347 101.821 240.012C102.63 239.677 103.498 239.504 104.374 239.504H117.6V239.551C117.992 240.962 118.894 241.903 119.889 241.903H120.462C121.465 241.903 122.367 240.986 122.759 239.551V239.504H135.985C136.864 239.5 137.735 239.67 138.548 240.003C139.361 240.336 140.1 240.827 140.723 241.447C141.346 242.067 141.84 242.804 142.177 243.616C142.514 244.427 142.688 245.297 142.688 246.176Z" stroke="#263238" stroke-linecap="round" stroke-linejoin="round"/>
<path d="M137.2 250.096H101.136V253.232H137.2V250.096Z" stroke="#263238" stroke-linecap="round" stroke-linejoin="round"/>
<path d="M137.2 258.72H101.136V261.856H137.2V258.72Z" stroke="#263238" stroke-linecap="round" stroke-linejoin="round"/>
<path d="M137.2 267.344H101.136V270.48H137.2V267.344Z" stroke="#263238" stroke-linecap="round" stroke-linejoin="round"/>
<path d="M137.2 284.592H101.136V287.728H137.2V284.592Z" stroke="#263238" stroke-linecap="round" stroke-linejoin="round"/>
<path d="M137.2 293.216H101.136V296.352H137.2V293.216Z" stroke="#263238" stroke-linecap="round" stroke-linejoin="round"/>
<path d="M137.2 301.84H101.136V304.976H137.2V301.84Z" stroke="#263238" stroke-linecap="round" stroke-linejoin="round"/>
<path d="M327.712 50.176V116.698C327.712 118.468 327.009 120.165 325.758 121.416C324.507 122.667 322.81 123.37 321.04 123.37H289.398C287.628 123.37 285.931 122.667 284.68 121.416C283.429 120.165 282.726 118.468 282.726 116.698V50.176C282.726 48.4065 283.429 46.7095 284.68 45.4583C285.931 44.2071 287.628 43.5042 289.398 43.5042H302.624V43.5512C303.016 44.9624 303.918 45.9032 304.913 45.9032H305.486C306.489 45.9032 307.391 44.9938 307.783 43.5512V43.5042H321.009C321.888 43.5 322.759 43.6696 323.572 44.003C324.385 44.3364 325.124 44.8272 325.747 45.4472C326.37 46.0671 326.864 46.804 327.201 47.6155C327.538 48.4271 327.712 49.2972 327.712 50.176Z" stroke="#263238" stroke-linecap="round" stroke-linejoin="round"/>
<path d="M323.58 91.3046H287.124V116.032H323.58V91.3046Z" stroke="#263238" stroke-linecap="round" stroke-linejoin="round"/>
<path d="M287.124 116.032L323.58 91.3046" stroke="#263238" stroke-linecap="round" stroke-linejoin="round"/>
<path d="M323.58 116.032L287.124 91.3046" stroke="#263238" stroke-linecap="round" stroke-linejoin="round"/>
<path d="M323.58 78.7371H287.124V85.0248H323.58V78.7371Z" stroke="#263238" stroke-linecap="round" stroke-linejoin="round"/>
<path d="M287.124 85.0248L323.58 78.7371" stroke="#263238" stroke-linecap="round" stroke-linejoin="round"/>
<path d="M323.58 85.0248L287.124 78.7371" stroke="#263238" stroke-linecap="round" stroke-linejoin="round"/>
<path d="M323.58 66.7968H287.124V73.0845H323.58V66.7968Z" stroke="#263238" stroke-linecap="round" stroke-linejoin="round"/>
<path d="M287.124 73.0766L323.58 66.7968" stroke="#263238" stroke-linecap="round" stroke-linejoin="round"/>
<path d="M323.58 73.0766L287.124 66.7968" stroke="#263238" stroke-linecap="round" stroke-linejoin="round"/>
<path d="M323.58 54.8486H287.124V61.1363H323.58V54.8486Z" stroke="#263238" stroke-linecap="round" stroke-linejoin="round"/>
<path d="M287.124 61.1363L323.58 54.8486" stroke="#263238" stroke-linecap="round" stroke-linejoin="round"/>
<path d="M323.58 61.1363L287.124 54.8486" stroke="#263238" stroke-linecap="round" stroke-linejoin="round"/>
<path d="M338.186 100.673C342.113 100.673 345.297 97.4898 345.297 93.5626C345.297 89.6353 342.113 86.4517 338.186 86.4517C334.259 86.4517 331.075 89.6353 331.075 93.5626C331.075 97.4898 334.259 100.673 338.186 100.673Z" stroke="#263238" stroke-linecap="round" stroke-linejoin="round"/>
<path d="M334.525 91.6339L338.084 95.6323L346.528 84.9699" stroke="#263238" stroke-linecap="round" stroke-linejoin="round"/>
<path d="M86.483 60.368V126.89C86.4841 127.767 86.3122 128.635 85.9773 129.445C85.6423 130.255 85.1509 130.991 84.5312 131.61C83.9115 132.23 83.1755 132.722 82.3656 133.056C81.5557 133.391 80.6876 133.563 79.8112 133.562H48.169C47.2925 133.563 46.4245 133.391 45.6145 133.056C44.8046 132.722 44.0687 132.23 43.449 131.61C42.8292 130.991 42.3378 130.255 42.0029 129.445C41.668 128.635 41.4961 127.767 41.4971 126.89V60.368C41.4971 58.5985 42.2 56.9015 43.4513 55.6503C44.7025 54.3991 46.3995 53.6962 48.169 53.6962H61.395V53.7432C61.787 55.1544 62.6886 56.0952 63.6843 56.0952H64.288C65.2915 56.0952 66.1931 55.1779 66.5851 53.7432V53.6962H79.8112C81.5807 53.6962 83.2777 54.3991 84.5289 55.6503C85.7801 56.9015 86.483 58.5985 86.483 60.368Z" stroke="#263238" stroke-linecap="round" stroke-linejoin="round"/>
<path d="M74.9661 72.912H53.0141V93.296H74.9661V72.912Z" stroke="#263238" stroke-linecap="round" stroke-linejoin="round"/>
<path d="M79.8347 110.168H48.1376V121.99H79.8347V110.168Z" stroke="#263238" stroke-linecap="round" stroke-linejoin="round"/>
<path d="M60.5013 100.477C60.5013 100.788 60.4093 101.091 60.237 101.349C60.0647 101.606 59.8198 101.807 59.5333 101.926C59.2468 102.045 58.9315 102.076 58.6274 102.015C58.3232 101.955 58.0438 101.805 57.8245 101.586C57.6052 101.367 57.4559 101.088 57.3954 100.783C57.3349 100.479 57.366 100.164 57.4846 99.8774C57.6033 99.5909 57.8043 99.346 58.0621 99.1737C58.32 99.0014 58.6232 98.9094 58.9333 98.9094C59.3491 98.9094 59.748 99.0746 60.042 99.3687C60.3361 99.6628 60.5013 100.062 60.5013 100.477Z" stroke="#263238" stroke-linecap="round" stroke-linejoin="round"/>
<path d="M65.5424 100.477C65.5424 100.788 65.4504 101.091 65.2781 101.349C65.1058 101.606 64.861 101.807 64.5744 101.926C64.2879 102.045 63.9727 102.076 63.6685 102.015C63.3643 101.955 63.0849 101.805 62.8657 101.586C62.6464 101.367 62.497 101.088 62.4365 100.783C62.376 100.479 62.4071 100.164 62.5258 99.8774C62.6444 99.5909 62.8454 99.346 63.1033 99.1737C63.3611 99.0014 63.6643 98.9094 63.9744 98.9094C64.3903 98.9094 64.7891 99.0746 65.0831 99.3687C65.3772 99.6628 65.5424 100.062 65.5424 100.477Z" stroke="#263238" stroke-linecap="round" stroke-linejoin="round"/>
<path d="M69.0312 102.03C69.8885 102.03 70.5835 101.335 70.5835 100.477C70.5835 99.6201 69.8885 98.9251 69.0312 98.9251C68.1739 98.9251 67.4789 99.6201 67.4789 100.477C67.4789 101.335 68.1739 102.03 69.0312 102.03Z" stroke="#263238" stroke-linecap="round" stroke-linejoin="round"/>
<path d="M41.8342 63.6373H86.044" stroke="#263238" stroke-linecap="round" stroke-linejoin="round"/>
<path d="M191.86 332.847C198.979 332.847 204.749 327.077 204.749 319.958C204.749 312.84 198.979 307.069 191.86 307.069C184.742 307.069 178.972 312.84 178.972 319.958C178.972 327.077 184.742 332.847 191.86 332.847Z" stroke="#263238" stroke-linecap="round" stroke-linejoin="round"/>
<path d="M185.228 316.462L191.672 323.714L206.976 304.388" stroke="#263238" stroke-linecap="round" stroke-linejoin="round"/>
<path d="M259.629 66.4518V264.208C259.627 269.467 257.537 274.51 253.817 278.229C250.097 281.947 245.054 284.035 239.794 284.035H145.714C140.462 284.025 135.429 281.931 131.72 278.214C128.01 274.497 125.926 269.46 125.926 264.208V66.4518C125.928 61.1946 128.018 56.1535 131.736 52.4368C135.454 48.7202 140.496 46.6323 145.753 46.6323H185.079L185.118 46.7734C186.278 50.96 188.952 53.6805 191.923 53.6805H193.648C196.619 53.6805 199.293 50.96 200.461 46.7734L200.508 46.6323H239.818C245.072 46.6365 250.11 48.7262 253.825 52.4424C257.54 56.1586 259.627 61.1974 259.629 66.4518Z" fill="white"/>
<path d="M231.484 99.3485H126.161V212.143H231.484V99.3485Z" fill="#263238" stroke="#263238" stroke-linecap="round" stroke-linejoin="round"/>
<path d="M200.437 46.7734C199.269 50.96 196.596 53.6805 193.624 53.6805H191.923C188.952 53.6805 186.278 50.96 185.118 46.7734L185.079 46.6323H145.753C141.033 46.6292 136.466 48.3098 132.873 51.3722C129.281 54.4345 126.898 58.6777 126.153 63.3393H259.379C258.634 58.6777 256.251 54.4345 252.659 51.3722C249.066 48.3098 244.499 46.6292 239.779 46.6323H200.484L200.437 46.7734Z" fill="#D4D4D4"/>
<path d="M268.128 119.215V94.08H265.854V61.936C265.854 56.6767 263.766 51.6327 260.048 47.9131C256.329 44.1936 251.286 42.1029 246.027 42.1008H139.552C136.945 42.0977 134.363 42.6085 131.954 43.6039C129.545 44.5993 127.356 46.0599 125.511 47.9021C123.667 49.7442 122.204 51.9319 121.205 54.3399C120.207 56.748 119.693 59.3292 119.693 61.936V278.32C119.692 280.927 120.205 283.509 121.203 285.917C122.201 288.326 123.664 290.514 125.509 292.356C127.353 294.199 129.543 295.659 131.953 296.654C134.363 297.649 136.945 298.159 139.552 298.155H246.027C248.631 298.155 251.21 297.642 253.616 296.645C256.023 295.648 258.209 294.187 260.05 292.345C261.891 290.503 263.351 288.316 264.347 285.91C265.343 283.504 265.855 280.924 265.854 278.32V140.634H268.128V125.785H265.854V119.215H268.128ZM259.629 264.208C259.627 269.467 257.537 274.51 253.817 278.229C250.097 281.947 245.053 284.035 239.794 284.035H145.714C140.462 284.025 135.429 281.931 131.72 278.214C128.01 274.497 125.926 269.46 125.926 264.208V66.4518C125.928 61.1946 128.018 56.1535 131.736 52.4368C135.454 48.7202 140.496 46.6323 145.753 46.6323H185.079L185.118 46.7734C186.278 50.96 188.952 53.6805 191.923 53.6805H193.648C196.619 53.6805 199.293 50.96 200.461 46.7734L200.508 46.6323H239.818C242.422 46.6313 245 47.1431 247.406 48.1386C249.812 49.134 251.998 50.5936 253.84 52.4341C255.682 54.2745 257.143 56.4596 258.141 58.8648C259.138 61.27 259.652 63.8481 259.653 66.4518L259.629 264.208Z" fill="#707070" stroke="#263238" stroke-linejoin="round"/>
<path d="M243.73 44.8291H141.81C136.553 44.8312 131.512 46.921 127.795 50.6392C124.078 54.3573 121.99 59.3993 121.99 64.6565V275.6C121.99 278.203 122.503 280.782 123.5 283.187C124.496 285.593 125.957 287.778 127.798 289.62C129.639 291.461 131.825 292.921 134.23 293.918C136.636 294.914 139.214 295.427 141.818 295.427H243.738C246.342 295.427 248.92 294.914 251.325 293.918C253.731 292.921 255.917 291.461 257.758 289.62C259.599 287.778 261.059 285.593 262.056 283.187C263.052 280.782 263.565 278.203 263.565 275.6V64.6565C263.565 62.052 263.052 59.4731 262.055 57.067C261.058 54.661 259.597 52.4749 257.755 50.6336C255.913 48.7924 253.726 47.3321 251.32 46.3361C248.913 45.3402 246.334 44.8281 243.73 44.8291ZM259.629 264.208C259.627 269.467 257.537 274.51 253.817 278.229C250.097 281.947 245.053 284.035 239.794 284.035H145.714C140.462 284.025 135.429 281.931 131.72 278.214C128.01 274.497 125.926 269.46 125.926 264.208V66.4518C125.928 61.1946 128.018 56.1535 131.736 52.4368C135.454 48.7202 140.496 46.6323 145.753 46.6323H185.079L185.118 46.7734C186.278 50.96 188.952 53.6805 191.923 53.6805H193.648C196.619 53.6805 199.293 50.96 200.461 46.7734L200.508 46.6323H239.818C242.422 46.6313 245 47.1431 247.406 48.1386C249.812 49.134 251.998 50.5936 253.84 52.4341C255.682 54.2745 257.143 56.4596 258.141 58.8648C259.138 61.27 259.652 63.8481 259.653 66.4518L259.629 264.208Z" fill="#263238" stroke="#263238" stroke-linejoin="round"/>
<path d="M194.228 47.5809C194.23 47.2112 194.121 46.8494 193.917 46.5414C193.713 46.2333 193.421 45.9929 193.08 45.8507C192.739 45.7085 192.363 45.6709 192 45.7427C191.637 45.8144 191.304 45.9923 191.043 46.2537C190.781 46.5151 190.604 46.8483 190.532 47.211C190.46 47.5737 190.498 47.9495 190.64 48.2908C190.782 48.6321 191.022 48.9234 191.331 49.1278C191.639 49.3323 192 49.4406 192.37 49.439C192.862 49.437 193.334 49.2405 193.682 48.8925C194.03 48.5445 194.226 48.0731 194.228 47.5809Z" fill="white"/>
<path d="M137.812 54.7153C137.812 56.5969 135.695 57.2712 135.687 58.7137V58.8H137.741V59.435H134.997V58.9019C134.997 56.8792 137.114 56.4872 137.114 54.731C137.114 54.0881 136.902 53.751 136.385 53.751C135.867 53.751 135.632 54.096 135.632 54.6761V55.2328H134.981V54.7232C134.981 53.7667 135.42 53.1552 136.385 53.1552C137.349 53.1552 137.812 53.7589 137.812 54.7153Z" fill="#263238"/>
<path d="M141.23 54.7075V54.88C141.258 55.1507 141.197 55.4233 141.056 55.6557C140.914 55.8881 140.7 56.0673 140.446 56.1657C140.701 56.2645 140.916 56.445 141.058 56.679C141.2 56.913 141.26 57.1874 141.23 57.4593V57.9376C141.23 58.8941 140.783 59.5056 139.819 59.5056C138.854 59.5056 138.415 58.8784 138.415 57.9376V57.5142H139.066V57.9846C139.066 58.5491 139.301 58.8862 139.803 58.8862C140.305 58.8862 140.532 58.5569 140.532 57.9219V57.4437C140.532 56.8243 140.273 56.5342 139.748 56.5107H139.372V55.8913H139.779C139.889 55.8919 139.998 55.8693 140.099 55.8251C140.199 55.7809 140.289 55.716 140.363 55.6347C140.437 55.5534 140.493 55.4575 140.528 55.3531C140.562 55.2487 140.574 55.1383 140.563 55.0289V54.7467C140.563 54.1038 140.344 53.7745 139.834 53.7745C139.325 53.7745 139.097 54.1195 139.097 54.684V55.0054H138.447V54.7232C138.447 53.7667 138.893 53.1552 139.85 53.1552C140.806 53.1552 141.23 53.751 141.23 54.7075Z" fill="#263238"/>
<path d="M142.578 55.1779V56.0403H141.904V55.1779H142.578ZM142.578 58.5805V59.4429H141.904V58.5805H142.578Z" fill="#263238"/>
<path d="M143.989 55.7424C144.079 55.5778 144.214 55.4419 144.377 55.3503C144.541 55.2588 144.727 55.2153 144.915 55.2249C145.699 55.2249 146.075 55.8129 146.075 56.7067V57.9219C146.075 58.8784 145.62 59.4899 144.664 59.4899C143.707 59.4899 143.26 58.8627 143.26 57.9219V57.5064H143.919V57.9689C143.919 58.5334 144.146 58.8705 144.648 58.8705C145.15 58.8705 145.377 58.5334 145.377 57.9689V56.7537C145.377 56.1971 145.15 55.8521 144.648 55.8521C144.557 55.8479 144.466 55.8622 144.38 55.8942C144.295 55.9262 144.217 55.9751 144.151 56.0382C144.085 56.1012 144.032 56.177 143.997 56.2609C143.961 56.3448 143.942 56.4351 143.942 56.5264V56.6675H143.292L143.464 53.1944H145.926V53.8216H144.084L143.989 55.7424Z" fill="#263238"/>
<path d="M149.548 54.6918V54.8094H148.897V54.6526C148.897 54.0881 148.662 53.7589 148.152 53.7589C147.643 53.7589 147.368 54.096 147.368 54.7624V56.1657C147.441 55.961 147.578 55.7854 147.759 55.6652C147.94 55.5451 148.155 55.4869 148.372 55.4993C149.156 55.4993 149.532 56.0795 149.532 56.9811V57.9219C149.532 58.8784 149.062 59.4899 148.105 59.4899C147.149 59.4899 146.671 58.8627 146.671 57.9219V54.7389C146.671 53.751 147.118 53.1709 148.105 53.1709C149.093 53.1709 149.548 53.7432 149.548 54.6918ZM147.4 57.0438V57.9768C147.4 58.5413 147.627 58.8784 148.137 58.8784C148.646 58.8784 148.921 58.5413 148.921 57.9768V57.036C148.921 56.4715 148.678 56.1344 148.137 56.1344C147.596 56.1344 147.392 56.448 147.392 57.036L147.4 57.0438Z" fill="#263238"/>
<path d="M217.756 54.9662H215.992V59.3801H217.756V54.9662Z" fill="#263238"/>
<path d="M220.108 54.0882H218.344V59.3801H220.108V54.0882Z" fill="#263238"/>
<path d="M222.46 53.4609H220.696V59.3801H222.46V53.4609Z" fill="#263238"/>
<path d="M224.812 52.3712H223.048V59.3801H224.812V52.3712Z" fill="#263238"/>
<path d="M246.639 59.2547H236.055V52.7867H246.639V59.2547ZM236.643 58.6667H246.051V53.3747H236.643V58.6667Z" fill="#263238"/>
<path d="M243.111 54.0176H237.521V58.0317H243.111V54.0176Z" fill="#263238"/>
<path d="M247.603 55.2641H246.27V56.7851H247.603V55.2641Z" fill="#263238"/>
<path d="M232.174 57.8513C232.102 57.8529 232.031 57.8338 231.97 57.7965C229.814 56.5186 228.395 57.7024 228.332 57.7965C228.258 57.8688 228.158 57.9092 228.054 57.9092C227.95 57.9092 227.85 57.8688 227.776 57.7965C227.708 57.7169 227.675 57.6142 227.682 57.5102C227.689 57.4062 227.737 57.3092 227.815 57.2398C227.893 57.1693 229.712 55.6091 232.378 57.1928C232.45 57.2388 232.505 57.3067 232.536 57.3866C232.567 57.4665 232.571 57.5542 232.548 57.6367C232.525 57.7192 232.477 57.7922 232.409 57.8449C232.342 57.8977 232.259 57.9274 232.174 57.9297V57.8513Z" fill="#263238"/>
<path d="M232.973 56.5264C232.901 56.5247 232.83 56.503 232.77 56.4637C229.634 54.6134 227.564 56.4088 227.54 56.4637C227.466 56.536 227.366 56.5764 227.262 56.5764C227.158 56.5764 227.058 56.536 226.984 56.4637C226.947 56.4272 226.918 56.3839 226.898 56.3361C226.878 56.2883 226.868 56.2371 226.868 56.1854C226.868 56.1336 226.878 56.0824 226.898 56.0346C226.918 55.9868 226.947 55.9435 226.984 55.907C226.984 55.907 229.532 53.7275 233.138 55.907C233.216 55.9488 233.277 56.0156 233.312 56.0965C233.347 56.1774 233.354 56.2677 233.331 56.3529C233.308 56.4381 233.258 56.5131 233.187 56.5659C233.117 56.6187 233.03 56.6462 232.942 56.644L232.973 56.5264Z" fill="#263238"/>
<path d="M233.695 54.9819C233.623 54.9834 233.552 54.9644 233.491 54.927C229.571 52.575 226.921 54.7937 226.811 54.927C226.772 54.961 226.727 54.9869 226.677 55.0034C226.628 55.0198 226.576 55.0264 226.525 55.0227C226.473 55.0191 226.423 55.0053 226.376 54.9821C226.33 54.959 226.289 54.927 226.255 54.8878C226.221 54.8487 226.195 54.8033 226.178 54.7541C226.162 54.705 226.155 54.6531 226.159 54.6014C226.162 54.5497 226.176 54.4992 226.199 54.4529C226.223 54.4065 226.255 54.3652 226.294 54.3312C226.294 54.3312 229.43 51.6421 233.899 54.3312C233.943 54.3578 233.982 54.3929 234.013 54.4346C234.043 54.4762 234.066 54.5236 234.078 54.5739C234.09 54.6242 234.093 54.6764 234.085 54.7276C234.077 54.7788 234.059 54.8279 234.032 54.8721C233.989 54.9162 233.935 54.9491 233.877 54.9682C233.818 54.9873 233.756 54.992 233.695 54.9819Z" fill="#263238"/>
<path d="M230.982 58.5099C230.984 58.7075 230.926 58.9011 230.818 59.066C230.709 59.2309 230.553 59.3598 230.371 59.4361C230.189 59.5124 229.988 59.5328 229.794 59.4946C229.6 59.4565 229.422 59.3615 229.282 59.2218C229.143 59.082 229.048 58.9039 229.01 58.71C228.971 58.5162 228.992 58.3153 229.068 58.1331C229.144 57.9508 229.273 57.7954 229.438 57.6866C229.603 57.5778 229.797 57.5205 229.994 57.5221C230.256 57.5241 230.506 57.6288 230.691 57.8137C230.875 57.9985 230.98 58.2485 230.982 58.5099Z" fill="#263238"/>
<path d="M227.211 95.2717H113.053V206.027H227.211V95.2717Z" fill="#F00280" stroke="#263238" stroke-linecap="round" stroke-linejoin="round"/>
<path d="M217.693 104.499H122.563V175.451H217.693V104.499Z" fill="white" stroke="#263238" stroke-linecap="round" stroke-linejoin="round"/>
<path d="M216.541 104.499L121.41 175.451" stroke="#263238" stroke-linecap="round" stroke-linejoin="round"/>
<path d="M122.563 104.499L217.693 175.451" stroke="#263238" stroke-linecap="round" stroke-linejoin="round"/>
<path d="M157.216 189.72C159.09 189.72 160.61 188.2 160.61 186.325C160.61 184.451 159.09 182.931 157.216 182.931C155.341 182.931 153.821 184.451 153.821 186.325C153.821 188.2 155.341 189.72 157.216 189.72Z" fill="white" stroke="#263238" stroke-linecap="round" stroke-linejoin="round"/>
<path d="M170.128 189.72C172.003 189.72 173.523 188.2 173.523 186.325C173.523 184.451 172.003 182.931 170.128 182.931C168.253 182.931 166.733 184.451 166.733 186.325C166.733 188.2 168.253 189.72 170.128 189.72Z" fill="white" stroke="#263238" stroke-linecap="round" stroke-linejoin="round"/>
<path d="M183.04 189.72C184.915 189.72 186.435 188.2 186.435 186.325C186.435 184.451 184.915 182.931 183.04 182.931C181.166 182.931 179.646 184.451 179.646 186.325C179.646 188.2 181.166 189.72 183.04 189.72Z" fill="white" stroke="#263238" stroke-linecap="round" stroke-linejoin="round"/>
<path d="M190.716 216.219H136.832V276.015H190.716V216.219Z" fill="#F00280" stroke="#263238" stroke-linecap="round" stroke-linejoin="round"/>
<path d="M185.377 237.285H141.645V269.9H185.377V237.285Z" fill="white" stroke="#263238" stroke-linecap="round" stroke-linejoin="round"/>
<path d="M184.844 237.285L141.112 269.9" stroke="#263238" stroke-linecap="round" stroke-linejoin="round"/>
<path d="M141.645 237.285L185.377 269.9" stroke="#263238" stroke-linecap="round" stroke-linejoin="round"/>
<path d="M179.85 222.342H146.553V229.14H179.85V222.342Z" fill="white" stroke="#263238" stroke-linecap="round" stroke-linejoin="round"/>
<path d="M250.99 216.219H196.831V276.015H250.99V216.219Z" fill="#F00280" stroke="#263238" stroke-linecap="round" stroke-linejoin="round"/>
<path d="M245.855 237.285H202.123V269.9H245.855V237.285Z" fill="white" stroke="#263238" stroke-linecap="round" stroke-linejoin="round"/>
<path d="M245.321 237.285L201.59 269.9" stroke="#263238" stroke-linecap="round" stroke-linejoin="round"/>
<path d="M202.123 237.285L245.855 269.9" stroke="#263238" stroke-linecap="round" stroke-linejoin="round"/>
<path d="M240.32 222.342H207.023V229.14H240.32V222.342Z" fill="white" stroke="#263238" stroke-linecap="round" stroke-linejoin="round"/>
<path d="M137.717 76.9261H152.668" stroke="#263238" stroke-linecap="round" stroke-linejoin="round"/>
<path d="M137.717 81.6849H152.668" stroke="#263238" stroke-linecap="round" stroke-linejoin="round"/>
<path d="M137.717 86.4438H152.668" stroke="#263238" stroke-linecap="round" stroke-linejoin="round"/>
<path d="M230.128 76.9261H164.217V87.1181H230.128V76.9261Z" fill="#F00280" stroke="#263238" stroke-linecap="round" stroke-linejoin="round"/>
<path d="M291.287 178.164C291.287 178.164 291.483 174.871 290.503 174.871C289.523 174.871 287.799 174.871 287.799 175.655C287.799 176.439 287.603 178.007 287.603 178.007C287.603 178.007 284.318 178.972 283.933 179.575C283.549 180.179 281.417 179.967 281.221 181.708C281.161 184.158 281.226 186.61 281.417 189.054L292.432 185.51C292.896 184.792 293.223 183.995 293.396 183.158C293.592 181.998 293.984 179.873 294.564 179.293C295.145 178.713 296.132 177.356 294.564 177.356C293.433 177.43 292.323 177.703 291.287 178.164Z" fill="white" stroke="#263238" stroke-linecap="round" stroke-linejoin="round"/>
<path d="M291.287 178.164C291.022 178.407 290.813 178.706 290.678 179.04C290.542 179.373 290.482 179.733 290.503 180.093" stroke="#263238" stroke-linecap="round" stroke-linejoin="round"/>
<path d="M298.445 150.528C298.445 150.528 294.384 155.365 294.384 156.722V160.007C294.384 160.007 289.743 164.264 289.743 165.236C289.743 166.208 291.091 167.745 291.091 167.745C291.091 167.745 290.707 175.679 291.875 176.643C293.044 177.607 296.909 177.035 296.909 177.035L297.873 180.516L312.573 177.035L316.438 172.582C316.438 172.582 319.927 170.841 321.471 164.068C323.016 157.294 320.687 150.34 317.598 148.388C314.509 146.436 304.639 142.586 300.774 143.362C296.909 144.138 295.348 147.988 298.445 150.528Z" fill="white" stroke="#263238" stroke-linecap="round" stroke-linejoin="round"/>
<path d="M321.44 164.036C323.008 157.27 320.656 150.308 317.567 148.356C314.478 146.404 304.608 142.555 300.742 143.331C296.877 144.107 295.325 147.972 298.39 150.481L300.131 152.833C300.131 152.833 296.846 156.118 297.23 157.082C297.614 158.047 299.582 158.65 299.582 158.65C299.582 158.65 298.618 161.935 299.778 162.515C299.93 162.595 300.096 162.644 300.267 162.658C300.438 162.672 300.61 162.651 300.772 162.597C300.935 162.543 301.085 162.456 301.213 162.342C301.341 162.229 301.445 162.09 301.519 161.935C301.519 161.935 301.707 165.032 301.903 167.549C302.099 170.065 302.867 174.895 305.384 176.055C307.642 177.098 309.743 177.051 312.518 177.027L316.383 172.574C316.383 172.574 319.919 170.81 321.44 164.036Z" fill="#263238" stroke="#263238" stroke-linecap="round" stroke-linejoin="round"/>
<path d="M298.829 164.428C298.829 164.428 300.186 160.555 301.542 161.912C302.898 163.268 302.506 168.293 301.542 169.454C300.578 170.614 298.829 169.07 298.829 169.07" fill="white"/>
<path d="M298.829 164.428C298.829 164.428 300.186 160.555 301.542 161.912C302.898 163.268 302.506 168.293 301.542 169.454C300.578 170.614 298.829 169.07 298.829 169.07" stroke="#263238" stroke-linecap="round" stroke-linejoin="round"/>
<path d="M293.412 183.189L293.028 180.837C293.028 180.837 300.57 176.972 304.443 176.196C308.316 175.42 311.209 175.412 312.565 176.196C313.921 176.98 315.662 181.802 315.662 181.802C315.662 181.802 308.7 179.45 303.863 181.018C299.025 182.586 293.608 184.687 293.608 184.687L293.412 183.189Z" fill="white" stroke="#263238" stroke-linecap="round" stroke-linejoin="round"/>
<path d="M280.311 360.812C278.768 361.853 277.13 362.745 275.419 363.478C272.746 364.591 271.413 365.258 271.86 366.818C272.307 368.378 275.866 369.037 280.092 370.15C284.318 371.263 290.323 373.043 292.769 372.596C295.215 372.149 295.662 370.816 295.662 369.46C295.662 368.104 293.882 362.788 293.882 362.788L280.311 360.812Z" stroke="#263238" stroke-linecap="round" stroke-linejoin="round"/>
<path d="M317.018 361.698C317.018 361.698 315.905 369.037 316.791 370.597C317.677 372.157 324.356 372.165 325.689 371.263C326.56 370.595 327.185 369.658 327.469 368.598L326.583 359.699L315.678 361.698" fill="white"/>
<path d="M317.018 361.698C317.018 361.698 315.905 369.037 316.791 370.597C317.677 372.157 324.356 372.165 325.689 371.263C326.56 370.595 327.185 369.658 327.469 368.598L326.583 359.699L315.678 361.698" stroke="#263238" stroke-linecap="round" stroke-linejoin="round"/>
<path d="M279.198 261.597C279.198 261.597 279.198 292.291 279.645 304.529C280.11 313.707 281.157 322.846 282.781 331.891C283.008 332.777 282.115 357.026 282.115 357.026L279.449 358.805L279.222 361.941C279.222 361.941 282.115 366.175 286.34 367.955C290.566 369.734 294.784 367.696 294.784 367.696C294.784 367.696 297.011 358.578 297.457 357.684C297.904 356.791 299.237 330.103 299.237 326.097V308.535L303.243 275.835L303.463 272.495C303.463 272.495 309.249 308.974 310.135 314.094C311.021 319.213 314.36 330.997 314.839 335.262C315.317 339.527 316.407 355.944 316.407 355.944L315.732 361.73L317.512 364.403C319.29 365.09 321.173 365.464 323.079 365.509C325.972 365.509 327.085 362.624 327.085 362.624V355.936C327.085 353.937 326.411 351.232 326.411 350.597C326.411 349.962 327.751 325.689 327.304 317.457C326.857 309.225 324.411 268.52 324.411 268.52L325.078 261.621C325.078 261.621 308.175 265.847 296.603 263.401C285.031 260.954 279.48 258.947 279.48 258.947V260.727L279.198 261.597Z" fill="#263238" stroke="#263238" stroke-linecap="round" stroke-linejoin="round"/>
<path d="M330.362 188.215C330.362 188.215 331.718 189.571 333.459 194.212C335.199 198.854 346.003 224.585 344.678 225.933C343.353 227.282 324.364 240.641 324.364 240.641L322.428 235.028L331.138 223.44L324.748 210.896C324.748 210.896 322.396 208.379 323.4 202.578C324.404 196.776 330.362 188.215 330.362 188.215Z" fill="#F00280" stroke="#263238" stroke-linecap="round" stroke-linejoin="round"/>
<path d="M328.574 203.26L333.012 221.754L338.664 224.961L331.138 223.424L325.674 212.589L328.574 203.26Z" fill="#263238" stroke="#263238" stroke-linecap="round" stroke-linejoin="round"/>
<path d="M329.97 198.666L321.848 225.549L322.24 231.351C322.24 231.351 322.82 232.707 323.98 235.224C325.14 237.74 332.102 255.921 331.522 256.885C330.942 257.85 327.069 259.59 327.069 259.59L326.881 262.883C323.465 264.238 319.976 265.4 316.43 266.364C311.789 267.524 301.346 267.932 293.804 267.148C286.262 266.364 276.752 261.911 276.752 261.911C277.247 257.935 277.967 253.99 278.908 250.096C280.068 246.035 283.745 228.434 283.745 228.434L281.229 213.35L278.877 218.571C278.877 218.571 273.655 227.086 272.299 228.05C270.943 229.014 266.881 229.79 264.561 227.666C262.24 225.541 262.993 218.767 264.561 215.671C266.129 212.574 275.2 193.428 275.2 192.072C275.2 190.716 294.549 183.37 294.549 183.37C294.549 183.37 304.02 180.469 310.017 180.469C316.015 180.469 318.727 182.821 318.727 182.821C318.727 182.821 328.778 185.722 330.331 188.231C331.883 190.739 330.519 196.165 330.519 196.165" fill="#F00280"/>
<path d="M329.97 198.666L321.848 225.549L322.24 231.351C322.24 231.351 322.82 232.707 323.98 235.224C325.14 237.74 332.102 255.921 331.522 256.885C330.942 257.85 327.069 259.59 327.069 259.59L326.881 262.883C323.465 264.238 319.976 265.4 316.43 266.364C311.789 267.524 301.346 267.932 293.804 267.148C286.262 266.364 276.752 261.911 276.752 261.911C277.247 257.935 277.967 253.99 278.908 250.096C280.068 246.035 283.745 228.434 283.745 228.434L281.229 213.35L278.877 218.571C278.877 218.571 273.655 227.086 272.299 228.05C270.943 229.014 266.881 229.79 264.561 227.666C262.24 225.541 262.993 218.767 264.561 215.671C266.129 212.574 275.2 193.428 275.2 192.072C275.2 190.716 294.549 183.37 294.549 183.37C294.549 183.37 304.02 180.469 310.017 180.469C316.015 180.469 318.727 182.821 318.727 182.821C318.727 182.821 328.778 185.722 330.331 188.231C331.883 190.739 330.519 196.165 330.519 196.165" stroke="#263238" stroke-linecap="round" stroke-linejoin="round"/>
<path d="M326.45 257.826L322.028 235.968L328.668 258.657L327.069 259.59L326.45 257.826Z" fill="#263238" stroke="#263238" stroke-linecap="round" stroke-linejoin="round"/>
<path d="M278.971 203.276L278.328 200.406" stroke="#263238" stroke-linecap="round" stroke-linejoin="round"/>
<path d="M281.229 213.366L279.661 206.372" stroke="#263238" stroke-linecap="round" stroke-linejoin="round"/>
<path d="M295.16 228.45L313.341 225.165" stroke="#263238" stroke-linecap="round" stroke-linejoin="round"/>
<path d="M310.182 228.583L313.725 228.262" stroke="#263238" stroke-linecap="round" stroke-linejoin="round"/>
<path d="M298.829 229.61L308.841 228.701" stroke="#263238" stroke-linecap="round" stroke-linejoin="round"/>
<path d="M289.578 185.4C289.578 185.4 293.835 182.758 294.423 182.319C295.011 181.88 302.06 178.65 307.344 178.211C312.628 177.772 313.953 178.211 313.953 178.211L316.156 181.88C316.156 181.88 300.884 182.907 296.485 184.232C293.786 185.035 291.039 185.672 288.261 186.137L289.578 185.4Z" fill="#F00280" stroke="#263238" stroke-linecap="round" stroke-linejoin="round"/>
</svg>
