<svg width="14" height="14" viewBox="0 0 14 14" fill="none" xmlns="http://www.w3.org/2000/svg">
<g clip-path="url(#clip0_904_21)">
<path d="M4.53303 10.8664C4.53303 10.9211 4.47019 10.9648 4.39095 10.9648C4.30078 10.973 4.23794 10.9293 4.23794 10.8664C4.23794 10.8117 4.30078 10.768 4.38002 10.768C4.46199 10.7598 4.53303 10.8035 4.53303 10.8664ZM3.68326 10.7434C3.66413 10.798 3.71878 10.8609 3.80075 10.8773C3.8718 10.9047 3.95377 10.8773 3.97016 10.8227C3.98656 10.768 3.93464 10.7051 3.85267 10.6805C3.78163 10.6613 3.70239 10.6887 3.68326 10.7434ZM4.89098 10.6969C4.81174 10.716 4.75709 10.768 4.76529 10.8309C4.77348 10.8855 4.84453 10.9211 4.9265 10.902C5.00574 10.8828 5.06038 10.8309 5.05219 10.7762C5.04399 10.7242 4.97022 10.6887 4.89098 10.6969ZM6.68889 0.21875C2.89907 0.21875 0 3.09805 0 6.89062C0 9.92305 1.90721 12.518 4.6314 13.4313C4.98115 13.4941 5.1041 13.2781 5.1041 13.1004C5.1041 12.9309 5.09591 11.9957 5.09591 11.4215C5.09591 11.4215 3.18323 11.8316 2.78157 10.6066C2.78157 10.6066 2.47008 9.81094 2.02197 9.60586C2.02197 9.60586 1.39625 9.17656 2.06569 9.18477C2.06569 9.18477 2.74605 9.23945 3.12039 9.89023C3.71878 10.9457 4.72157 10.6422 5.1123 10.4617C5.17515 10.0242 5.35275 9.7207 5.54948 9.54023C4.02208 9.3707 2.48101 9.14922 2.48101 6.51875C2.48101 5.7668 2.68867 5.38945 3.12585 4.9082C3.05481 4.73047 2.82256 3.99766 3.1969 3.05156C3.76796 2.87383 5.08224 3.78984 5.08224 3.78984C5.62872 3.63672 6.21619 3.55742 6.79818 3.55742C7.38018 3.55742 7.96765 3.63672 8.51412 3.78984C8.51412 3.78984 9.8284 2.87109 10.3995 3.05156C10.7738 4.00039 10.5416 4.73047 10.4705 4.9082C10.9077 5.39219 11.1755 5.76953 11.1755 6.51875C11.1755 9.15742 9.5661 9.36797 8.03869 9.54023C8.29007 9.75625 8.5032 10.1664 8.5032 10.809C8.5032 11.7305 8.495 12.8707 8.495 13.0949C8.495 13.2727 8.62069 13.4887 8.9677 13.4258C11.7001 12.518 13.5527 9.92305 13.5527 6.89062C13.5527 3.09805 10.4787 0.21875 6.68889 0.21875ZM2.65588 9.64961C2.62036 9.67695 2.62856 9.73984 2.67501 9.7918C2.71873 9.83555 2.78157 9.85469 2.81709 9.81914C2.85261 9.7918 2.84442 9.72891 2.79797 9.67695C2.75425 9.6332 2.6914 9.61406 2.65588 9.64961ZM2.36078 9.42812C2.34166 9.46367 2.36898 9.50742 2.42363 9.53477C2.46735 9.56211 2.522 9.55391 2.54112 9.51562C2.56025 9.48008 2.53292 9.43633 2.47828 9.40898C2.42363 9.39258 2.37991 9.40078 2.36078 9.42812ZM3.24608 10.4016C3.20236 10.4371 3.21875 10.5191 3.2816 10.5711C3.34444 10.634 3.42368 10.6422 3.4592 10.5984C3.49473 10.5629 3.47833 10.4809 3.42368 10.4289C3.36357 10.366 3.2816 10.3578 3.24608 10.4016ZM2.93459 9.99961C2.89087 10.027 2.89087 10.098 2.93459 10.1609C2.9783 10.2238 3.05208 10.2512 3.0876 10.2238C3.13132 10.1883 3.13132 10.1172 3.0876 10.0543C3.04935 9.99141 2.9783 9.96406 2.93459 9.99961Z" fill="#302F4D"/>
</g>
<defs>
<clipPath id="clip0_904_21">
<rect width="13.5527" height="14" fill="white"/>
</clipPath>
</defs>
</svg>
