<svg width="13" height="14" viewBox="0 0 13 14" fill="none" xmlns="http://www.w3.org/2000/svg">
<g clip-path="url(#clip0_904_17)">
<path d="M6.8822 3.85546C5.1444 3.85546 3.74268 5.2582 3.74268 6.99726C3.74268 8.73632 5.1444 10.1391 6.8822 10.1391C8.61999 10.1391 10.0217 8.73632 10.0217 6.99726C10.0217 5.2582 8.61999 3.85546 6.8822 3.85546ZM6.8822 9.03984C5.75918 9.03984 4.8411 8.12382 4.8411 6.99726C4.8411 5.8707 5.75645 4.95468 6.8822 4.95468C8.00794 4.95468 8.92329 5.8707 8.92329 6.99726C8.92329 8.12382 8.00521 9.03984 6.8822 9.03984ZM10.8824 3.72695C10.8824 4.13437 10.5545 4.45976 10.1501 4.45976C9.74301 4.45976 9.41785 4.13163 9.41785 3.72695C9.41785 3.32226 9.74574 2.99413 10.1501 2.99413C10.5545 2.99413 10.8824 3.32226 10.8824 3.72695ZM12.9618 4.4707C12.9153 3.48906 12.6913 2.61952 11.9726 1.90312C11.2567 1.18671 10.3878 0.962494 9.40692 0.913275C8.39594 0.855853 5.36572 0.855853 4.35474 0.913275C3.37654 0.95976 2.50764 1.18398 1.78903 1.90038C1.07041 2.61679 0.849085 3.48632 0.799902 4.46796C0.742521 5.47968 0.742521 8.5121 0.799902 9.52382C0.846352 10.5055 1.07041 11.375 1.78903 12.0914C2.50764 12.8078 3.37381 13.032 4.35474 13.0812C5.36572 13.1387 8.39594 13.1387 9.40692 13.0812C10.3878 13.0348 11.2567 12.8105 11.9726 12.0914C12.6885 11.375 12.9126 10.5055 12.9618 9.52382C13.0191 8.5121 13.0191 5.48242 12.9618 4.4707ZM11.6557 10.6094C11.4425 11.1453 11.03 11.5582 10.4917 11.7742C9.68563 12.0941 7.77295 12.0203 6.8822 12.0203C5.99144 12.0203 4.07603 12.0914 3.27271 11.7742C2.73716 11.5609 2.32457 11.148 2.10872 10.6094C1.78903 9.80273 1.8628 7.88867 1.8628 6.99726C1.8628 6.10585 1.79176 4.18906 2.10872 3.38515C2.32184 2.84921 2.73443 2.43632 3.27271 2.22031C4.07877 1.90038 5.99144 1.97421 6.8822 1.97421C7.77295 1.97421 9.68836 1.90312 10.4917 2.22031C11.0272 2.43359 11.4398 2.84648 11.6557 3.38515C11.9754 4.19179 11.9016 6.10585 11.9016 6.99726C11.9016 7.88867 11.9754 9.80546 11.6557 10.6094Z" fill="#302F4D"/>
</g>
<defs>
<clipPath id="clip0_904_17">
<rect width="12.2411" height="14" fill="white" transform="translate(0.758911)"/>
</clipPath>
</defs>
</svg>
