<svg width="13" height="14" viewBox="0 0 13 14" fill="none" xmlns="http://www.w3.org/2000/svg">
<g clip-path="url(#clip0_904_19)">
<path d="M3.27526 12.2502H0.737414V4.07167H3.27526V12.2502ZM2.00497 2.95604C1.19345 2.95604 0.535217 2.28339 0.535217 1.47128C0.535217 1.08119 0.690066 0.707083 0.965698 0.431251C1.24133 0.155419 1.61517 0.000457764 2.00497 0.000457764C2.39477 0.000457764 2.76861 0.155419 3.04424 0.431251C3.31987 0.707083 3.47472 1.08119 3.47472 1.47128C3.47472 2.28339 2.81622 2.95604 2.00497 2.95604ZM12.7736 12.2502H10.2412V8.26893C10.2412 7.32011 10.2221 6.10331 8.92174 6.10331C7.60227 6.10331 7.40007 7.13417 7.40007 8.20057V12.2502H4.86496V4.07167H7.29897V5.18729H7.33449C7.67331 4.54472 8.50095 3.86659 9.73572 3.86659C12.3042 3.86659 12.7763 5.55917 12.7763 7.75761V12.2502H12.7736Z" fill="#302F4D"/>
</g>
<defs>
<clipPath id="clip0_904_19">
<rect width="12.2411" height="14" fill="white" transform="translate(0.535217)"/>
</clipPath>
</defs>
</svg>
